<svg xmlns="http://www.w3.org/2000/svg" xmlns:xlink="http://www.w3.org/1999/xlink" width="80" zoomAndPan="magnify" viewBox="0 0 60 60" height="80" preserveAspectRatio="xMidYMid meet" version="1.0"><defs><clipPath id="36280019eb"><path d="M 5.398438 2.882812 L 54.148438 2.882812 L 54.148438 59.882812 L 5.398438 59.882812 Z M 5.398438 2.882812 " clip-rule="nonzero"/></clipPath></defs><path stroke-linecap="butt" transform="matrix(0.75, 0, 0, 0.75, 20.399999, 22.739265)" fill="none" stroke-linejoin="miter" d="M -0.0020822 1.998688 L 25.602086 1.998688 " stroke="#efcebd" stroke-width="4" stroke-opacity="1" stroke-miterlimit="4"/><path fill="#f5afcd" d="M 36.429688 55.582031 C 35.566406 53.875 34.785156 52.121094 33.570312 50.613281 C 33.433594 50.441406 33.296875 50.261719 33.085938 50.175781 C 32.355469 49.875 31.609375 49.832031 30.851562 50.078125 C 30.644531 50.140625 30.492188 50.242188 30.472656 50.472656 C 30.460938 50.609375 30.398438 50.6875 30.253906 50.714844 C 30.035156 50.753906 29.824219 50.816406 29.609375 50.871094 C 29.460938 50.90625 29.304688 50.964844 29.246094 51.101562 C 29.039062 51.589844 28.59375 51.890625 28.308594 52.320312 C 28.09375 52.644531 27.84375 52.953125 27.625 53.277344 C 27.464844 53.515625 27.269531 53.675781 26.976562 53.707031 C 26.601562 53.753906 26.359375 53.984375 26.160156 54.28125 C 25.929688 54.625 25.683594 54.964844 25.449219 55.308594 C 25.328125 55.480469 25.308594 55.683594 25.398438 55.867188 C 25.714844 56.523438 26.078125 57.136719 26.9375 57.152344 C 27.007812 57.152344 27.085938 57.164062 27.152344 57.191406 C 27.460938 57.328125 27.753906 57.300781 28.085938 57.234375 C 28.429688 57.164062 28.816406 57.089844 29.152344 57.207031 C 29.421875 57.304688 29.6875 57.269531 29.945312 57.324219 C 30.101562 57.355469 30.246094 57.3125 30.339844 57.183594 C 30.53125 56.917969 30.777344 56.945312 31.0625 56.976562 C 31.328125 57.003906 31.613281 57.160156 31.859375 57.039062 C 32.246094 56.847656 32.515625 56.972656 32.78125 57.238281 C 32.847656 57.304688 32.9375 57.355469 33.023438 57.402344 C 33.246094 57.539062 33.472656 57.605469 33.699219 57.398438 C 33.769531 57.328125 33.863281 57.277344 33.964844 57.304688 C 34.304688 57.398438 34.71875 57.257812 34.960938 57.652344 C 35.023438 57.746094 35.15625 57.800781 35.261719 57.863281 C 35.472656 57.980469 35.636719 57.964844 35.792969 57.792969 C 36.238281 57.304688 36.414062 56.695312 36.554688 56.167969 C 36.558594 55.894531 36.507812 55.734375 36.429688 55.582031 Z M 30.710938 44.28125 C 30.691406 44.242188 30.675781 44.203125 30.660156 44.164062 C 30.640625 44.203125 30.605469 44.238281 30.601562 44.273438 C 30.601562 44.3125 30.632812 44.351562 30.648438 44.390625 C 30.667969 44.355469 30.691406 44.316406 30.710938 44.28125 Z M 30.992188 47 C 31.019531 46.882812 30.9375 46.828125 30.855469 46.785156 C 30.757812 46.738281 30.730469 46.8125 30.730469 46.882812 C 30.734375 46.984375 30.777344 47.070312 30.894531 47.074219 C 30.925781 47.074219 30.960938 47.027344 30.992188 47 Z M 31.144531 42.53125 C 31.167969 42.375 31.097656 42.300781 30.953125 42.296875 C 30.882812 42.292969 30.800781 42.3125 30.808594 42.394531 C 30.816406 42.527344 30.910156 42.601562 31.027344 42.640625 C 31.140625 42.679688 31.121094 42.578125 31.144531 42.53125 Z M 33.03125 44.980469 C 32.585938 45.351562 32.285156 45.753906 32.035156 46.207031 C 32.011719 46.246094 31.992188 46.300781 32 46.34375 C 32.011719 46.414062 32.03125 46.5 32.078125 46.539062 C 32.125 46.578125 32.210938 46.582031 32.28125 46.578125 C 32.324219 46.578125 32.371094 46.542969 32.410156 46.515625 C 32.773438 46.253906 33.042969 45.90625 33.308594 45.550781 C 33.382812 45.449219 33.328125 45.367188 33.273438 45.289062 C 33.203125 45.191406 33.121094 45.097656 33.03125 44.980469 Z M 29.816406 46.75 C 29.8125 46.726562 29.800781 46.628906 29.769531 46.535156 C 29.675781 46.253906 29.515625 46.007812 29.324219 45.78125 C 28.570312 44.875 27.75 44.027344 26.914062 43.199219 C 26.839844 43.125 26.742188 43.105469 26.644531 43.160156 C 26.550781 43.214844 26.503906 43.308594 26.542969 43.410156 C 26.78125 44.03125 27.058594 44.632812 27.691406 44.960938 C 27.851562 45.046875 27.953125 45.175781 28.050781 45.316406 C 28.296875 45.683594 28.582031 46.03125 28.777344 46.421875 C 28.941406 46.742188 29.21875 46.867188 29.492188 47.019531 C 29.621094 47.09375 29.804688 46.96875 29.816406 46.75 Z M 36.265625 32.445312 C 36.914062 32.460938 37.539062 32.515625 38.167969 32.339844 C 39.351562 32.007812 40.542969 31.691406 41.730469 31.371094 C 42.160156 31.257812 42.589844 31.152344 43.015625 31.035156 C 43.480469 30.910156 43.945312 30.957031 44.410156 31.011719 C 44.621094 31.039062 44.722656 31.183594 44.664062 31.375 C 44.609375 31.5625 44.542969 31.75 44.445312 31.917969 C 44.222656 32.300781 43.980469 32.671875 43.664062 32.988281 C 43.085938 33.566406 42.625 34.226562 42.203125 34.921875 C 41.1875 36.601562 40.160156 38.277344 39.144531 39.957031 C 39.054688 40.101562 38.957031 40.261719 38.9375 40.425781 C 38.875 41.007812 38.613281 41.5 38.304688 41.976562 C 37.863281 42.65625 37.410156 43.328125 37.042969 44.050781 C 36.976562 44.179688 36.886719 44.300781 36.800781 44.421875 C 36.695312 44.5625 36.574219 44.6875 36.371094 44.652344 C 36.078125 44.597656 35.890625 44.867188 35.609375 44.878906 C 35.460938 44.882812 35.394531 45.066406 35.316406 45.1875 C 35.105469 45.519531 34.875 45.839844 34.59375 46.113281 C 34.375 46.328125 34.332031 46.359375 34.089844 46.195312 C 33.898438 46.0625 33.75 46.078125 33.550781 46.152344 C 32.664062 46.492188 31.910156 47.046875 31.136719 47.570312 C 31.015625 47.65625 30.898438 47.746094 30.785156 47.839844 C 30.636719 47.957031 30.492188 48.011719 30.324219 47.875 C 30.117188 47.703125 29.859375 47.722656 29.617188 47.714844 C 29.324219 47.703125 29.03125 47.769531 28.785156 47.519531 C 28.6875 47.414062 28.5625 47.492188 28.46875 47.59375 C 28.347656 47.726562 28.21875 47.695312 28.074219 47.617188 C 27.765625 47.445312 27.515625 47.210938 27.332031 46.917969 C 26.742188 45.976562 26.003906 45.152344 25.273438 44.320312 C 25.082031 44.101562 24.917969 43.847656 24.78125 43.589844 C 24.371094 42.800781 23.871094 42.078125 23.273438 41.417969 C 22.625 40.699219 22.125 39.886719 21.714844 39.015625 C 21.453125 38.457031 21.15625 37.925781 20.78125 37.433594 C 20.554688 37.140625 20.351562 36.832031 20.238281 36.476562 C 20.152344 36.210938 20.003906 35.988281 19.8125 35.796875 C 19.109375 35.109375 18.671875 34.261719 18.296875 33.378906 C 18.140625 33.015625 17.933594 32.6875 17.691406 32.375 C 17.199219 31.734375 16.746094 31.058594 16.125 30.523438 C 15.902344 30.328125 15.753906 30.066406 15.652344 29.785156 C 15.589844 29.601562 15.679688 29.433594 15.867188 29.386719 C 16.269531 29.289062 16.613281 29.296875 16.914062 29.679688 C 17.480469 30.40625 18.308594 30.769531 19.144531 31.0625 C 20.304688 31.46875 21.488281 31.800781 22.667969 32.160156 C 23.285156 32.347656 23.914062 32.445312 24.5625 32.433594 C 25.695312 32.417969 26.824219 32.597656 27.957031 32.554688 C 28.671875 32.527344 29.390625 32.546875 30.105469 32.539062 C 30.246094 32.535156 30.4375 32.550781 30.527344 32.46875 C 30.855469 32.183594 31.25 32.199219 31.636719 32.136719 C 32.464844 32.003906 33.292969 31.871094 34.109375 31.691406 C 34.539062 31.597656 34.949219 31.410156 35.363281 31.253906 C 35.597656 31.167969 35.832031 31.105469 36.085938 31.128906 C 36.285156 31.148438 36.410156 31.261719 36.394531 31.464844 C 36.367188 31.777344 36.3125 32.085938 36.265625 32.445312 " fill-opacity="1" fill-rule="nonzero"/><path fill="#e6dea1" d="M 33.324219 13.371094 C 33.332031 13.351562 33.34375 13.332031 33.34375 13.3125 C 33.34375 13.304688 33.316406 13.300781 33.300781 13.292969 C 33.296875 13.3125 33.285156 13.332031 33.285156 13.351562 C 33.285156 13.359375 33.3125 13.363281 33.324219 13.371094 Z M 31.386719 13.480469 C 31.398438 13.460938 31.410156 13.441406 31.414062 13.421875 C 31.414062 13.402344 31.398438 13.382812 31.390625 13.363281 C 31.382812 13.382812 31.367188 13.402344 31.367188 13.421875 C 31.367188 13.441406 31.382812 13.460938 31.386719 13.480469 Z M 43.734375 16.757812 C 43.726562 16.714844 43.722656 16.671875 43.707031 16.628906 C 43.703125 16.617188 43.667969 16.605469 43.652344 16.609375 C 43.484375 16.644531 43.339844 16.714844 43.230469 16.847656 C 43.214844 16.871094 43.210938 16.941406 43.230469 16.957031 C 43.375 17.078125 43.664062 16.964844 43.734375 16.757812 Z M 36.824219 17.589844 C 36.773438 17.667969 36.707031 17.742188 36.679688 17.828125 C 36.625 18 36.59375 18.179688 36.53125 18.441406 C 36.867188 18.195312 36.773438 17.875 36.824219 17.589844 Z M 34.523438 16.980469 C 34.234375 17.488281 34.269531 18.023438 34.242188 18.550781 C 34.238281 18.609375 34.246094 18.714844 34.351562 18.699219 C 34.414062 18.6875 34.480469 18.648438 34.527344 18.601562 C 34.636719 18.492188 34.6875 18.359375 34.667969 18.203125 C 34.621094 17.796875 34.574219 17.386719 34.523438 16.980469 Z M 40.335938 25.371094 C 40.042969 25.90625 39.921875 26.375 39.808594 26.84375 C 39.734375 27.148438 39.964844 27.441406 40.265625 27.453125 C 40.414062 27.460938 40.558594 27.445312 40.707031 27.441406 C 40.925781 27.433594 41.007812 27.269531 41.039062 27.105469 C 41.082031 26.855469 41.3125 26.621094 41.128906 26.34375 C 41.117188 26.324219 41.09375 26.3125 41.070312 26.296875 C 40.761719 26.085938 40.578125 25.769531 40.335938 25.371094 Z M 35.0625 21.832031 C 34.824219 22.398438 34.488281 22.847656 34.828125 23.425781 C 35.527344 23.316406 36.230469 23.265625 36.878906 23.007812 C 36.898438 22.84375 36.820312 22.746094 36.757812 22.644531 C 36.699219 22.542969 36.628906 22.449219 36.554688 22.34375 C 36.417969 22.398438 36.296875 22.425781 36.195312 22.488281 C 35.90625 22.664062 35.679688 22.542969 35.480469 22.34375 C 35.34375 22.203125 35.234375 22.046875 35.0625 21.832031 Z M 32.453125 18.570312 C 32.242188 18.898438 32.136719 19.085938 32.007812 19.261719 C 31.859375 19.457031 31.695312 19.484375 31.496094 19.351562 C 31.394531 19.28125 31.304688 19.195312 31.207031 19.121094 C 31.121094 19.054688 31.074219 18.902344 30.851562 18.976562 C 30.90625 19.835938 30.925781 20.710938 30.886719 21.585938 C 30.882812 21.609375 30.898438 21.636719 30.910156 21.652344 C 30.925781 21.667969 30.949219 21.671875 31.011719 21.703125 C 31.234375 21.636719 31.492188 21.566406 31.75 21.484375 C 31.957031 21.417969 32.214844 21.460938 32.367188 21.28125 C 32.550781 21.070312 32.382812 20.8125 32.394531 20.574219 C 32.425781 19.964844 32.433594 19.351562 32.453125 18.570312 Z M 39.015625 24.285156 C 38.792969 24.238281 38.601562 24.378906 38.402344 24.445312 C 37.488281 24.738281 36.558594 24.988281 35.601562 25.105469 C 35.316406 25.140625 35.023438 25.011719 34.742188 25.148438 C 35.003906 25.40625 35.332031 25.183594 35.621094 25.265625 C 35.667969 25.28125 35.714844 25.285156 35.761719 25.300781 C 35.933594 25.347656 36.046875 25.523438 35.996094 25.699219 C 35.839844 26.261719 35.589844 26.742188 35.019531 27.011719 C 34.394531 27.300781 33.761719 27.574219 33.089844 27.753906 C 33 27.777344 32.890625 27.765625 32.832031 27.859375 C 32.808594 27.894531 32.792969 27.953125 32.804688 27.996094 C 32.8125 28.027344 32.890625 28.078125 32.898438 28.070312 C 33.179688 27.863281 33.507812 27.871094 33.824219 27.890625 C 34.324219 27.917969 34.804688 27.839844 35.277344 27.691406 C 35.394531 27.65625 35.519531 27.636719 35.640625 27.617188 C 36.367188 27.492188 37.09375 27.367188 37.824219 27.246094 C 38.011719 27.214844 38.140625 27.144531 38.175781 26.933594 C 38.316406 26.128906 38.644531 25.386719 38.96875 24.644531 C 39.015625 24.539062 39.089844 24.429688 39.015625 24.285156 Z M 25.847656 15.8125 C 25.859375 15.859375 25.832031 15.933594 25.914062 15.945312 C 25.917969 15.945312 25.933594 15.902344 25.925781 15.894531 C 25.894531 15.871094 25.859375 15.851562 25.828125 15.828125 C 25.828125 15.480469 25.667969 15.191406 25.472656 14.917969 C 25.453125 14.890625 25.386719 14.902344 25.34375 14.894531 C 25.335938 14.875 25.320312 14.851562 25.324219 14.832031 C 25.324219 14.816406 25.347656 14.804688 25.363281 14.789062 C 25.390625 14.828125 25.378906 14.859375 25.324219 14.886719 C 25.480469 15.203125 25.566406 15.5625 25.847656 15.8125 Z M 31.113281 14.59375 C 31.273438 14.351562 31.273438 14.351562 31.214844 14.03125 C 31.183594 14.230469 31.15625 14.417969 31.128906 14.613281 C 31.035156 14.765625 31.042969 14.9375 31.035156 15.109375 C 31.03125 15.179688 31.015625 15.257812 31.125 15.300781 C 31.164062 15.0625 31.207031 14.828125 31.113281 14.59375 Z M 23.3125 27.949219 L 23.3125 27.910156 L 23.320312 27.9375 C 23.320312 27.9375 23.3125 27.953125 23.3125 27.949219 Z M 45.125 25.46875 C 45.445312 25.289062 45.761719 25.09375 46.085938 24.925781 C 46.445312 24.742188 46.832031 24.664062 47.234375 24.726562 C 47.503906 24.769531 47.621094 24.949219 47.53125 25.199219 C 47.433594 25.476562 47.308594 25.742188 47.132812 25.980469 C 46.707031 26.554688 46.292969 27.132812 45.886719 27.71875 C 45.214844 28.691406 44.507812 29.636719 43.695312 30.496094 C 43.34375 30.867188 43.011719 31.28125 42.472656 31.410156 C 42.34375 31.441406 42.273438 31.542969 42.199219 31.644531 C 42.097656 31.78125 41.992188 31.917969 41.878906 32.046875 C 41.667969 32.289062 41.429688 32.433594 41.105469 32.242188 C 40.96875 32.164062 40.820312 32.191406 40.671875 32.21875 C 39.96875 32.34375 39.269531 32.484375 38.5625 32.585938 C 38.300781 32.625 38.109375 32.761719 37.898438 32.882812 C 37.464844 33.136719 37.261719 33.117188 36.910156 32.777344 C 36.644531 32.515625 36.4375 32.246094 36.503906 31.8125 C 36.558594 31.460938 36.070312 31.140625 35.734375 31.257812 C 35.621094 31.296875 35.5 31.351562 35.414062 31.429688 C 35.109375 31.714844 34.738281 31.824219 34.335938 31.855469 C 33.230469 31.941406 32.136719 32.128906 31.027344 32.195312 C 30.136719 32.246094 29.253906 32.203125 28.367188 32.152344 C 28.066406 32.132812 27.78125 32.101562 27.539062 32.34375 C 27.410156 32.472656 27.226562 32.492188 27.050781 32.46875 C 26.417969 32.382812 25.773438 32.378906 25.144531 32.226562 C 24.285156 32.019531 23.421875 31.820312 22.554688 31.625 C 22.316406 31.570312 22.070312 31.535156 21.824219 31.507812 C 21.234375 31.449219 20.65625 31.328125 20.101562 31.121094 C 20.03125 31.097656 19.964844 31.054688 19.890625 31.046875 C 18.664062 30.90625 17.617188 30.273438 16.519531 29.792969 C 15.976562 29.554688 15.480469 29.226562 15.089844 28.765625 C 14.996094 28.65625 14.863281 28.578125 14.742188 28.496094 C 14.554688 28.371094 14.402344 28.214844 14.277344 28.027344 C 14.179688 27.882812 14.089844 27.734375 14.113281 27.554688 C 14.144531 27.335938 14.351562 27.339844 14.5 27.269531 C 14.636719 27.203125 14.660156 27.089844 14.566406 26.96875 C 13.992188 26.199219 13.515625 25.367188 13.007812 24.554688 C 12.644531 23.972656 12.296875 23.378906 12.019531 22.746094 C 11.824219 22.296875 11.640625 21.839844 11.621094 21.339844 C 11.605469 21.050781 11.726562 20.949219 12.023438 20.960938 C 12.214844 20.972656 12.355469 21.046875 12.449219 21.207031 C 12.664062 21.5625 12.871094 21.925781 13.085938 22.285156 C 13.261719 22.578125 13.441406 22.871094 13.621094 23.164062 C 13.699219 23.289062 13.808594 23.308594 13.941406 23.253906 C 13.929688 23.265625 13.921875 23.273438 13.910156 23.285156 C 13.925781 23.191406 13.867188 23.316406 13.945312 23.261719 C 13.691406 23.097656 13.65625 22.824219 13.589844 22.566406 C 13.550781 22.402344 13.65625 22.28125 13.804688 22.226562 C 14.128906 22.105469 14.46875 22.054688 14.816406 22.09375 C 15.019531 22.117188 15.191406 22.199219 15.3125 22.375 C 15.394531 22.496094 15.488281 22.609375 15.570312 22.730469 C 15.648438 22.84375 15.753906 22.886719 15.886719 22.871094 C 15.910156 22.867188 15.933594 22.863281 15.957031 22.859375 C 16.621094 22.722656 17.167969 22.9375 17.628906 23.402344 C 17.628906 23.402344 17.671875 23.378906 17.671875 23.378906 L 17.617188 23.386719 C 17.742188 23.253906 17.6875 23.113281 17.625 22.980469 C 17.132812 21.945312 16.957031 20.828125 16.753906 19.71875 C 16.683594 19.335938 16.71875 18.933594 16.554688 18.5625 C 16.523438 18.488281 16.550781 18.355469 16.601562 18.285156 C 16.875 17.921875 16.902344 17.460938 17.101562 17.066406 C 17.203125 16.863281 17.207031 16.644531 17.214844 16.421875 C 17.222656 16.152344 17.234375 15.878906 17.277344 15.613281 C 17.335938 15.21875 17.433594 15.140625 17.851562 15.066406 C 18.351562 14.980469 18.546875 15.007812 19.152344 15.269531 C 19.238281 15.03125 19.179688 14.792969 19.167969 14.558594 C 19.128906 13.820312 19.152344 13.085938 19.3125 12.359375 C 19.320312 12.3125 19.328125 12.265625 19.339844 12.214844 C 19.359375 12.109375 19.417969 12.035156 19.53125 12.027344 C 19.640625 12.019531 19.71875 12.089844 19.734375 12.195312 C 19.796875 12.582031 19.851562 12.96875 19.90625 13.359375 C 20.0625 14.425781 20.214844 15.496094 20.359375 16.5625 C 20.398438 16.847656 20.519531 17.0625 20.726562 17.257812 C 21.207031 17.714844 21.664062 18.191406 22.15625 18.6875 C 22.242188 18.472656 22.128906 18.332031 22.074219 18.191406 C 21.667969 17.160156 21.367188 16.097656 21.183594 15.007812 C 21.144531 14.789062 21.105469 14.570312 21.101562 14.351562 C 21.082031 12.902344 21.058594 11.453125 21.253906 10.015625 C 21.335938 9.40625 21.480469 8.808594 21.726562 8.242188 C 21.828125 8.011719 21.925781 7.789062 22.207031 7.730469 C 22.378906 7.691406 22.445312 7.5625 22.464844 7.40625 C 22.5 7.144531 22.671875 7.03125 22.914062 7 C 23.085938 6.980469 23.257812 6.972656 23.429688 6.960938 C 23.761719 6.933594 24 7.074219 24.144531 7.371094 C 24.304688 7.703125 24.488281 8.023438 24.628906 8.363281 C 25.503906 10.5 26.433594 12.609375 27.40625 14.703125 C 27.980469 15.9375 28.265625 17.257812 28.507812 18.585938 C 28.675781 19.480469 28.761719 20.386719 28.765625 21.292969 C 28.769531 21.691406 28.925781 22 29.128906 22.308594 C 29.226562 22.457031 29.351562 22.484375 29.507812 22.398438 C 29.675781 22.300781 29.878906 22.257812 30.015625 22.050781 C 29.367188 21.273438 29.320312 20.296875 29.273438 19.351562 C 29.195312 17.753906 29.25 16.160156 29.542969 14.582031 C 29.699219 13.761719 29.890625 12.949219 30.304688 12.210938 C 30.386719 12.058594 30.476562 11.910156 30.574219 11.769531 C 31.035156 11.097656 31.644531 10.875 32.433594 11.128906 C 32.613281 11.1875 32.710938 11.15625 32.808594 11.035156 C 33.199219 10.5625 33.589844 10.085938 33.976562 9.609375 C 34.175781 9.359375 34.371094 9.109375 34.5625 8.851562 C 34.917969 8.378906 35.410156 8.304688 35.949219 8.375 C 36.144531 8.402344 36.238281 8.5625 36.1875 8.757812 C 36.164062 8.851562 36.109375 8.9375 36.082031 9.03125 C 35.988281 9.339844 35.980469 9.359375 36.285156 9.558594 C 36.464844 9.671875 36.515625 9.796875 36.457031 9.984375 C 36.421875 10.101562 36.386719 10.222656 36.324219 10.324219 C 36.070312 10.742188 36.007812 11.195312 36.011719 11.667969 C 36.019531 12.453125 36.027344 13.238281 36.039062 14.023438 C 36.042969 14.460938 36.136719 14.882812 36.238281 15.292969 C 36.4375 15.296875 36.476562 15.164062 36.53125 15.0625 C 36.8125 14.570312 37.085938 14.078125 37.359375 13.585938 C 37.5625 13.21875 37.78125 12.863281 38.054688 12.542969 C 38.394531 12.144531 39.265625 11.9375 39.753906 12.117188 C 39.992188 12.207031 40.09375 12.40625 40.15625 12.617188 C 40.335938 13.226562 40.484375 13.847656 40.503906 14.492188 C 40.523438 15.03125 40.523438 15.570312 40.539062 16.109375 C 40.546875 16.410156 40.660156 16.484375 40.890625 16.320312 C 41.671875 15.761719 42.523438 15.308594 43.347656 14.820312 C 43.726562 14.59375 44.117188 14.378906 44.507812 14.167969 C 44.910156 13.953125 45.34375 13.886719 45.796875 13.933594 C 46.066406 13.960938 46.203125 14.085938 46.238281 14.34375 C 46.277344 14.664062 46.25 14.984375 46.148438 15.289062 C 45.535156 17.136719 44.855469 18.949219 43.574219 20.464844 C 43.492188 20.558594 43.410156 20.652344 43.351562 20.757812 C 43.320312 20.8125 43.320312 20.902344 43.34375 20.964844 C 43.367188 21.035156 43.441406 21.054688 43.523438 21.042969 C 43.765625 21.015625 44.011719 20.972656 44.253906 20.972656 C 44.628906 20.96875 44.71875 21.050781 44.8125 21.421875 C 44.957031 21.976562 44.925781 22.542969 44.910156 23.105469 C 44.910156 23.246094 44.859375 23.390625 44.929688 23.515625 C 45.109375 23.542969 45.164062 23.414062 45.246094 23.335938 C 45.617188 22.976562 45.96875 22.59375 46.269531 22.175781 C 46.425781 21.953125 46.582031 21.734375 46.746094 21.519531 C 46.820312 21.417969 46.917969 21.339844 47.046875 21.324219 C 47.144531 21.308594 47.257812 21.285156 47.316406 21.386719 C 47.347656 21.4375 47.34375 21.527344 47.324219 21.589844 C 47.28125 21.703125 47.222656 21.8125 47.160156 21.917969 C 46.539062 22.976562 45.984375 24.074219 45.238281 25.058594 C 45.152344 25.171875 45.039062 25.289062 45.144531 25.449219 C 45.132812 25.441406 45.121094 25.4375 45.109375 25.433594 C 45.113281 25.445312 45.121094 25.457031 45.125 25.46875 " fill-opacity="1" fill-rule="nonzero"/><g clip-path="url(#36280019eb)"><path fill="#c7356f" d="M 33.863281 37.464844 C 33.730469 37.53125 33.722656 37.648438 33.734375 37.765625 C 33.753906 38 33.71875 38.257812 33.972656 38.398438 C 34.109375 38.476562 34.238281 38.152344 34.230469 37.742188 C 34.222656 37.5 34.046875 37.367188 33.863281 37.464844 Z M 31.15625 44.523438 C 31.15625 43.886719 31.160156 43.246094 31.15625 42.609375 C 31.15625 42.453125 31.113281 42.3125 30.9375 42.277344 C 30.777344 42.242188 30.617188 42.390625 30.597656 42.578125 C 30.585938 42.675781 30.582031 42.773438 30.582031 42.871094 C 30.589844 43.855469 30.589844 44.835938 30.601562 45.816406 C 30.605469 46.085938 30.640625 46.355469 30.671875 46.621094 C 30.707031 46.886719 30.824219 47.0625 30.917969 47.015625 C 31.066406 46.941406 31.105469 46.792969 31.128906 46.65625 C 31.160156 46.488281 31.171875 46.3125 31.171875 46.144531 C 31.179688 45.601562 31.175781 45.0625 31.175781 44.523438 C 31.167969 44.523438 31.164062 44.523438 31.15625 44.523438 Z M 35.078125 42.324219 C 34.851562 42.277344 34.699219 42.332031 34.585938 42.542969 C 33.972656 43.703125 33.15625 44.71875 32.34375 45.738281 C 32.238281 45.871094 32.144531 46.015625 32.0625 46.167969 C 32.003906 46.277344 31.988281 46.410156 32.082031 46.511719 C 32.195312 46.628906 32.320312 46.554688 32.410156 46.480469 C 32.59375 46.320312 32.78125 46.15625 32.941406 45.972656 C 33.566406 45.242188 34.140625 44.476562 34.644531 43.660156 C 34.8125 43.386719 34.964844 43.105469 35.113281 42.824219 C 35.167969 42.71875 35.191406 42.59375 35.210938 42.542969 C 35.210938 42.382812 35.152344 42.339844 35.078125 42.324219 Z M 26.558594 43.335938 C 26.550781 43.566406 26.683594 43.753906 26.789062 43.941406 C 27.324219 44.914062 28.082031 45.714844 28.796875 46.546875 C 28.988281 46.773438 29.277344 46.878906 29.53125 47.019531 C 29.636719 47.074219 29.71875 46.984375 29.765625 46.898438 C 29.824219 46.785156 29.804688 46.664062 29.761719 46.546875 C 29.636719 46.195312 29.425781 45.898438 29.183594 45.621094 C 28.464844 44.789062 27.71875 43.980469 26.921875 43.222656 C 26.875 43.175781 26.800781 43.15625 26.753906 43.132812 C 26.613281 43.148438 26.558594 43.234375 26.558594 43.335938 Z M 17.714844 19.679688 C 17.558594 19.445312 17.339844 19.382812 17.074219 19.421875 C 16.839844 19.453125 16.734375 19.597656 16.777344 19.828125 C 16.855469 20.246094 17.070312 20.601562 17.320312 20.941406 C 17.757812 21.542969 18.335938 22 18.894531 22.480469 C 19.507812 23.003906 20.234375 23.164062 21.015625 23.1875 C 21.421875 23.199219 21.726562 23.039062 21.980469 22.742188 C 22.320312 22.335938 22.488281 21.855469 22.574219 21.339844 C 22.765625 20.132812 22.371094 19.066406 21.753906 18.066406 C 21.460938 17.585938 20.890625 17.429688 20.320312 17.613281 C 20.160156 17.664062 20.066406 17.785156 20.09375 17.945312 C 20.128906 18.160156 20.199219 18.371094 20.261719 18.578125 C 20.375 18.945312 20.382812 18.949219 20.019531 19.078125 C 19.855469 19.140625 19.683594 19.191406 19.617188 19.367188 C 19.519531 19.632812 19.324219 19.652344 19.085938 19.640625 C 18.667969 19.621094 18.261719 19.660156 18.058594 20.097656 C 17.847656 20 17.804688 19.820312 17.714844 19.679688 Z M 19.609375 26.902344 C 20 26.707031 20.1875 26.382812 20.269531 25.980469 C 20.339844 25.625 20.28125 25.3125 19.984375 25.050781 C 19.84375 24.925781 19.726562 24.75 19.652344 24.574219 C 19.308594 23.75 18.753906 23.054688 18.222656 22.355469 C 17.886719 21.914062 17.4375 21.621094 16.941406 21.382812 C 16.617188 21.226562 16.28125 21.214844 15.933594 21.261719 C 15.710938 21.292969 15.570312 21.414062 15.519531 21.625 C 15.453125 21.882812 15.402344 22.148438 15.347656 22.414062 C 15.320312 22.53125 15.289062 22.632812 15.183594 22.722656 C 14.964844 22.902344 14.921875 23.078125 15.054688 23.246094 C 15.496094 23.792969 15.683594 24.519531 16.277344 24.964844 C 16.3125 24.992188 16.339844 25.039062 16.355469 25.085938 C 16.382812 25.160156 16.355469 25.222656 16.273438 25.25 C 16.128906 25.300781 15.988281 25.304688 15.851562 25.210938 C 15.640625 25.074219 15.460938 24.90625 15.367188 24.671875 C 15.261719 24.417969 15.054688 24.382812 14.820312 24.410156 C 14.5 24.445312 14.347656 24.660156 14.433594 24.976562 C 14.460938 25.09375 14.53125 25.199219 14.578125 25.3125 C 14.617188 25.398438 14.707031 25.515625 14.679688 25.574219 C 14.519531 25.917969 14.773438 26.09375 14.976562 26.242188 C 15.84375 26.875 16.789062 27.324219 18.105469 27.304688 C 18.464844 27.300781 19.148438 27.128906 19.609375 26.902344 Z M 42.570312 24.363281 C 42.570312 24.363281 42.535156 24.347656 42.53125 24.347656 C 42.53125 24.296875 42.542969 24.25 42.546875 24.199219 C 42.574219 23.707031 42.40625 23.570312 41.960938 23.726562 C 41.816406 23.777344 41.703125 23.859375 41.632812 24 C 41.542969 24.171875 41.457031 24.351562 41.355469 24.515625 C 41.285156 24.632812 41.230469 24.820312 41.039062 24.742188 C 40.90625 24.691406 40.933594 24.539062 40.945312 24.421875 C 40.964844 24.273438 41 24.128906 41.011719 23.984375 C 41.019531 23.890625 41.042969 23.753906 40.992188 23.707031 C 40.785156 23.515625 40.808594 23.269531 40.769531 23.03125 C 40.75 22.878906 40.640625 22.773438 40.492188 22.71875 C 40.179688 22.613281 39.863281 22.699219 39.652344 22.964844 C 39.558594 23.082031 39.476562 23.207031 39.339844 23.273438 C 38.894531 23.484375 38.730469 23.902344 38.617188 24.328125 C 38.488281 24.824219 38.40625 25.332031 38.417969 25.851562 C 38.429688 26.292969 38.421875 26.734375 38.425781 27.171875 C 38.433594 28.332031 39.53125 29.035156 40.597656 28.5625 C 40.9375 28.410156 41.253906 28.222656 41.539062 27.984375 C 42.527344 27.164062 43.371094 26.210938 44.085938 25.144531 C 44.273438 24.859375 44.449219 24.5625 44.539062 24.226562 C 44.574219 24.085938 44.609375 23.9375 44.613281 23.796875 C 44.613281 23.386719 44.371094 23.222656 43.984375 23.371094 C 43.851562 23.421875 43.726562 23.507812 43.613281 23.601562 C 43.367188 23.804688 43.132812 24.019531 42.898438 24.234375 C 42.78125 24.339844 42.667969 24.421875 42.507812 24.34375 Z M 31.859375 9.960938 C 31.824219 9.835938 31.75 9.738281 31.613281 9.722656 C 31.453125 9.707031 31.316406 9.753906 31.238281 9.902344 C 31.171875 10.03125 31.144531 10.183594 31.066406 10.304688 C 29.976562 12.007812 30.019531 14.902344 32.460938 16.617188 C 32.621094 16.726562 32.796875 16.820312 32.980469 16.894531 C 33.246094 17 33.464844 16.929688 33.617188 16.6875 C 33.707031 16.542969 33.78125 16.386719 33.835938 16.222656 C 33.886719 16.078125 33.972656 15.96875 34.078125 15.859375 C 34.875 15.035156 35.445312 14.066406 35.90625 13.03125 C 36.058594 12.695312 36.195312 12.347656 36.273438 11.992188 C 36.417969 11.3125 36.460938 10.632812 36.105469 9.988281 C 35.980469 9.761719 35.816406 9.585938 35.578125 9.496094 C 35.269531 9.378906 35.03125 9.492188 34.886719 9.816406 C 34.855469 9.882812 34.855469 9.976562 34.804688 10.015625 C 34.402344 10.339844 34.371094 10.816406 34.257812 11.265625 C 34.152344 11.6875 34.058594 12.121094 33.765625 12.503906 C 33.503906 12.320312 33.433594 12.09375 33.457031 11.800781 C 33.488281 11.460938 33.480469 11.113281 33.484375 10.773438 C 33.484375 10.640625 33.425781 10.511719 33.285156 10.507812 C 33.070312 10.496094 32.921875 10.421875 32.800781 10.238281 C 32.726562 10.128906 32.582031 10.132812 32.460938 10.160156 C 32.292969 10.203125 32.132812 10.257812 31.949219 10.3125 C 31.921875 10.195312 31.894531 10.078125 31.859375 9.960938 Z M 45.972656 18.722656 C 45.949219 18.796875 45.921875 18.871094 45.898438 18.949219 C 45.785156 18.941406 45.667969 18.921875 45.621094 19.066406 C 45.628906 19.082031 45.632812 19.097656 45.636719 19.113281 C 45.675781 19.070312 45.664062 19.0625 45.609375 19.089844 C 45.707031 19.039062 45.808594 18.988281 45.910156 18.9375 C 45.953125 18.929688 46.011719 18.929688 46.03125 18.902344 C 46.082031 18.832031 46.019531 18.785156 45.96875 18.746094 C 45.996094 18.632812 46.023438 18.519531 46.050781 18.402344 C 46.601562 17.773438 46.691406 16.992188 46.765625 16.210938 C 46.792969 15.925781 46.621094 15.761719 46.316406 15.746094 C 46.171875 15.734375 46.023438 15.75 45.878906 15.78125 C 45.6875 15.820312 45.507812 15.90625 45.316406 15.941406 C 45.148438 15.976562 44.90625 16.007812 44.839844 15.863281 C 44.734375 15.625 44.492188 15.535156 44.375 15.3125 C 44.226562 15.015625 44.109375 14.953125 43.875 15.050781 C 43.597656 15.171875 43.320312 15.199219 43.023438 15.1875 C 42.703125 15.175781 42.472656 15.335938 42.285156 15.589844 C 41.957031 16.035156 41.757812 16.527344 41.667969 17.066406 C 41.617188 17.378906 41.585938 17.703125 41.492188 18.003906 C 41.273438 18.671875 41.34375 19.308594 41.628906 19.933594 C 41.769531 20.242188 41.933594 20.546875 42.09375 20.847656 C 42.273438 21.191406 42.585938 21.386719 42.910156 21.5625 C 42.992188 21.609375 43.109375 21.65625 43.1875 21.632812 C 43.613281 21.503906 44.066406 21.578125 44.492188 21.421875 C 45.324219 21.117188 46.015625 20.640625 46.53125 19.914062 C 46.984375 19.277344 47.4375 18.636719 47.878906 17.988281 C 48.003906 17.808594 48.105469 17.613281 48.199219 17.414062 C 48.269531 17.257812 48.15625 17.125 47.984375 17.128906 C 47.804688 17.136719 47.648438 17.179688 47.539062 17.34375 C 47.378906 17.589844 47.222656 17.839844 46.851562 17.792969 C 46.78125 17.78125 46.6875 17.886719 46.625 17.957031 C 46.507812 18.082031 46.410156 18.226562 46.300781 18.355469 C 46.222656 18.453125 46.125 18.414062 46.03125 18.382812 C 46.105469 18.511719 46.109375 18.628906 45.972656 18.722656 Z M 27.144531 12.507812 C 27.097656 12.117188 27.0625 11.726562 26.988281 11.339844 C 26.929688 11.03125 26.777344 10.925781 26.472656 10.914062 C 26.375 10.910156 26.277344 10.929688 26.179688 10.925781 C 25.863281 10.917969 25.636719 11.25 25.371094 11.214844 C 25.101562 11.175781 24.875 10.917969 24.574219 10.867188 C 23.777344 10.726562 23.140625 11.078125 22.53125 11.519531 C 22.464844 11.566406 22.425781 11.683594 22.410156 11.777344 C 22.382812 11.949219 22.289062 12.027344 22.128906 12.066406 C 21.964844 12.101562 21.769531 12.101562 21.695312 12.296875 C 21.632812 12.464844 21.550781 12.554688 21.386719 12.402344 C 21.25 12.273438 21.085938 12.242188 20.910156 12.246094 C 20.582031 12.253906 20.449219 12.402344 20.515625 12.710938 C 20.558594 12.925781 20.628906 13.136719 20.695312 13.347656 C 20.734375 13.480469 20.722656 13.582031 20.59375 13.660156 C 20.355469 13.796875 20.347656 14.003906 20.433594 14.234375 C 20.71875 15.023438 21.058594 15.785156 21.566406 16.457031 C 22.113281 17.179688 22.828125 17.691406 23.691406 17.984375 C 24.449219 18.238281 25.546875 18.113281 26.070312 17.042969 C 26.253906 16.667969 26.425781 16.285156 26.546875 15.890625 C 26.730469 15.304688 26.863281 14.703125 27.019531 14.113281 C 27.125 13.707031 27.175781 13.292969 27.144531 12.742188 C 27.144531 12.75 27.15625 12.628906 27.144531 12.507812 Z M 36.71875 21.382812 C 36.667969 21.210938 36.566406 21.023438 36.636719 20.828125 C 36.761719 20.710938 36.921875 20.726562 37.054688 20.675781 C 37.824219 20.390625 38.566406 20.070312 39.070312 19.378906 C 39.285156 19.078125 39.511719 18.789062 39.730469 18.492188 C 39.960938 18.171875 40.179688 17.84375 40.316406 17.472656 C 40.527344 16.898438 40.066406 16.269531 39.464844 16.351562 C 38.886719 16.433594 38.296875 16.53125 37.8125 16.910156 C 37.546875 17.121094 37.28125 17.332031 37.015625 17.539062 C 36.871094 17.355469 36.96875 17.195312 36.992188 17.035156 C 37.042969 16.722656 37.109375 16.410156 37.164062 16.097656 C 37.1875 15.960938 37.132812 15.828125 36.984375 15.835938 C 36.671875 15.84375 36.453125 15.785156 36.480469 15.40625 C 36.484375 15.300781 36.390625 15.234375 36.289062 15.214844 C 35.832031 15.121094 35.5625 15.253906 35.339844 15.667969 C 35.328125 15.6875 35.320312 15.710938 35.3125 15.734375 C 35.257812 15.898438 35.128906 15.949219 34.96875 15.953125 C 34.847656 15.957031 34.722656 15.957031 34.601562 15.976562 C 34.304688 16.015625 34.210938 16.101562 34.183594 16.394531 C 34.144531 16.808594 34.085938 17.226562 34.105469 17.640625 C 34.144531 18.515625 34.003906 19.402344 34.300781 20.265625 C 34.425781 20.628906 34.410156 21.007812 34.152344 21.371094 C 33.78125 21.894531 33.613281 22.519531 33.414062 23.125 C 33.242188 23.644531 33.160156 24.175781 33.277344 24.71875 C 33.3125 24.886719 33.285156 25.019531 33.109375 25.0625 C 32.8125 25.132812 32.734375 25.367188 32.699219 25.613281 C 32.636719 26.023438 32.605469 26.441406 32.5625 26.855469 C 32.488281 27.605469 32.753906 28.25 33.195312 28.839844 C 33.378906 29.085938 33.632812 29.21875 33.949219 29.238281 C 34.375 29.261719 34.789062 29.25 35.167969 29.03125 C 35.425781 28.882812 35.664062 28.828125 35.898438 29.085938 C 35.960938 29.152344 36.066406 29.1875 36.167969 29.144531 C 36.6875 28.929688 37.171875 28.640625 37.269531 28.054688 C 37.316406 27.769531 37.417969 27.566406 37.578125 27.351562 C 37.816406 27.039062 38.015625 26.699219 38.085938 26.300781 C 38.132812 26.046875 37.863281 25.824219 37.613281 25.902344 C 37.542969 25.925781 37.453125 25.949219 37.421875 26.003906 C 37.253906 26.28125 36.980469 26.289062 36.710938 26.300781 C 36.492188 26.308594 36.265625 26.273438 36.050781 26.308594 C 35.839844 26.339844 35.640625 26.433594 35.429688 26.5 C 35.402344 26.273438 35.570312 26.242188 35.691406 26.195312 C 36.207031 26 36.667969 25.726562 37.054688 25.339844 C 37.632812 24.761719 38.089844 24.09375 38.488281 23.382812 C 38.609375 23.164062 38.683594 22.933594 38.65625 22.679688 C 38.644531 22.546875 38.566406 22.453125 38.425781 22.441406 C 38.222656 22.425781 38.03125 22.433594 37.878906 22.597656 C 37.765625 22.726562 37.652344 22.859375 37.519531 22.964844 C 37.359375 23.097656 37.023438 22.945312 37.066406 22.746094 C 37.128906 22.433594 36.855469 22.46875 36.734375 22.351562 C 36.902344 21.925781 36.886719 21.929688 36.71875 21.382812 Z M 24.664062 25.726562 C 24.746094 25.746094 24.824219 25.761719 24.902344 25.78125 C 24.925781 25.847656 24.949219 25.914062 24.96875 25.980469 C 24.980469 26.019531 24.992188 26.0625 25 26.105469 C 25 26.109375 24.960938 26.128906 24.945312 26.128906 C 24.859375 26.117188 24.816406 26.054688 24.828125 25.980469 C 24.835938 25.914062 24.878906 25.851562 24.910156 25.789062 C 24.839844 25.746094 24.730469 25.820312 24.679688 25.710938 C 24.632812 25.628906 24.585938 25.550781 24.535156 25.464844 C 24.195312 25.589844 23.8125 25.578125 23.488281 25.773438 C 23.371094 26.101562 23.335938 26.414062 23.59375 26.722656 C 23.679688 26.820312 23.671875 27 23.695312 27.140625 C 23.703125 27.183594 23.683594 27.253906 23.652344 27.269531 C 23.574219 27.320312 23.519531 27.261719 23.492188 27.191406 C 23.347656 26.847656 23.148438 26.539062 22.886719 26.273438 C 22.683594 26.0625 22.4375 25.972656 22.148438 26.078125 C 22.050781 26.113281 21.988281 26.1875 22.023438 26.304688 C 22.089844 26.507812 22.285156 26.660156 22.273438 26.886719 C 22.195312 27 22.089844 26.964844 22 26.960938 C 21.621094 26.949219 21.328125 27.113281 21.105469 27.398438 C 21.019531 27.503906 20.832031 27.585938 20.871094 27.742188 C 20.921875 27.949219 20.90625 28.1875 21.082031 28.355469 C 21.136719 28.40625 21.1875 28.460938 21.246094 28.5 C 21.496094 28.667969 21.683594 28.894531 21.859375 29.132812 C 22.167969 29.550781 22.566406 29.878906 23.015625 30.152344 C 23.679688 30.554688 24.40625 30.628906 25.152344 30.574219 C 25.535156 30.546875 25.847656 30.101562 25.785156 29.730469 C 25.703125 29.265625 25.757812 28.984375 26.019531 28.515625 C 26.222656 28.652344 26.417969 28.800781 26.625 28.925781 C 26.902344 29.085938 27.175781 29.308594 27.472656 29.355469 C 28.289062 29.480469 29.121094 29.699219 29.9375 29.347656 C 30.34375 29.363281 30.5625 29.09375 30.753906 28.800781 C 31.078125 28.292969 31.257812 27.738281 31.289062 27.136719 C 31.320312 26.578125 31.273438 26.015625 31.417969 25.457031 C 31.503906 25.109375 31.359375 24.917969 31 24.78125 C 30.699219 24.667969 30.390625 24.574219 30.078125 24.511719 C 29.695312 24.4375 29.296875 24.375 28.996094 24.738281 C 28.984375 24.753906 28.910156 24.726562 28.875 24.707031 C 28.863281 24.703125 28.859375 24.660156 28.867188 24.640625 C 28.910156 24.527344 28.925781 24.363281 29.007812 24.3125 C 29.300781 24.136719 29.464844 23.875 29.582031 23.574219 C 29.640625 23.417969 29.738281 23.328125 29.914062 23.351562 C 30.414062 23.417969 30.832031 23.203125 31.238281 22.964844 C 32.023438 22.503906 32.65625 21.882812 32.925781 20.996094 C 33.195312 20.121094 33.320312 19.222656 33.257812 18.308594 C 33.210938 17.613281 32.75 17.050781 32.074219 16.894531 C 31.765625 16.820312 31.453125 16.742188 31.136719 16.714844 C 30.316406 16.644531 29.804688 16.832031 29.679688 17.761719 C 29.667969 17.835938 29.65625 17.90625 29.640625 17.980469 C 29.621094 18.082031 29.5625 18.167969 29.464844 18.195312 C 29.054688 18.3125 28.976562 18.636719 28.9375 18.992188 C 28.925781 19.113281 28.9375 19.242188 28.828125 19.328125 C 28.753906 19.382812 28.664062 19.207031 28.652344 18.976562 C 28.644531 18.832031 28.636719 18.683594 28.644531 18.535156 C 28.667969 18.070312 28.699219 17.605469 28.722656 17.140625 C 28.734375 16.875 28.617188 16.695312 28.398438 16.617188 C 28.171875 16.539062 27.957031 16.566406 27.789062 16.75 C 27.703125 16.839844 27.621094 16.933594 27.5625 17.039062 C 27.019531 18.023438 26.828125 19.066406 27.128906 20.160156 C 27.230469 20.539062 27.40625 20.894531 27.550781 21.257812 C 27.601562 21.390625 27.714844 21.511719 27.605469 21.6875 C 27.371094 21.699219 27.128906 21.707031 26.882812 21.730469 C 26.539062 21.761719 26.511719 21.796875 26.410156 22.167969 C 26.394531 22.214844 26.398438 22.265625 26.375 22.308594 C 26.355469 22.347656 26.320312 22.386719 26.28125 22.40625 C 26.199219 22.445312 26.144531 22.394531 26.105469 22.328125 C 26.039062 22.199219 26.058594 22.03125 25.910156 21.945312 C 25.652344 21.796875 25.0625 22 24.972656 22.28125 C 24.882812 22.558594 24.816406 22.84375 24.734375 23.125 C 24.722656 23.15625 24.652344 23.1875 24.609375 23.183594 C 24.578125 23.183594 24.53125 23.132812 24.523438 23.097656 C 24.460938 22.828125 24.507812 22.5625 24.542969 22.292969 C 24.5625 22.128906 24.390625 22.042969 24.234375 22.109375 C 23.972656 22.21875 23.878906 22.445312 23.824219 22.683594 C 23.570312 23.738281 23.804688 24.675781 24.535156 25.484375 C 24.578125 25.5625 24.621094 25.644531 24.664062 25.726562 Z M 24.332031 57.539062 C 24.066406 57.761719 24.035156 57.953125 24.199219 58.253906 C 24.429688 58.667969 24.773438 58.929688 25.25 58.980469 C 25.761719 59.03125 26.28125 59.074219 26.792969 58.953125 C 27.003906 58.902344 27.179688 58.933594 27.320312 59.113281 C 27.394531 59.210938 27.484375 59.296875 27.578125 59.375 C 28.042969 59.761719 28.550781 59.816406 29.09375 59.5625 C 29.25 59.492188 29.390625 59.390625 29.546875 59.3125 C 29.894531 59.144531 30.230469 59.078125 30.597656 59.304688 C 30.996094 59.550781 31.429688 59.609375 31.863281 59.382812 C 32.132812 59.238281 32.382812 59.253906 32.625 59.433594 C 32.683594 59.476562 32.75 59.511719 32.8125 59.550781 C 33.304688 59.835938 33.785156 59.894531 34.234375 59.464844 C 34.339844 59.359375 34.460938 59.261719 34.617188 59.273438 C 35.109375 59.304688 35.570312 59.082031 36.078125 59.152344 C 36.714844 59.234375 36.886719 59.082031 37.132812 58.480469 C 37.1875 58.34375 37.222656 58.199219 37.246094 58.058594 C 37.269531 57.925781 37.335938 57.859375 37.449219 57.785156 C 37.757812 57.589844 38.058594 57.375 38.171875 56.988281 C 38.261719 56.683594 38.246094 56.613281 37.972656 56.457031 C 37.78125 56.351562 37.515625 56.339844 37.394531 56.148438 C 37.074219 55.632812 36.578125 55.230469 36.382812 54.632812 C 36.328125 54.472656 36.226562 54.324219 36.132812 54.183594 C 36.050781 54.050781 35.921875 53.972656 35.761719 53.980469 C 35.617188 53.988281 35.46875 54 35.324219 54.035156 C 35.058594 54.097656 35 54.226562 35.140625 54.453125 C 35.34375 54.789062 35.570312 55.113281 35.613281 55.507812 C 35.488281 55.660156 35.3125 55.691406 35.148438 55.742188 C 34.726562 55.878906 34.300781 55.996094 33.878906 56.140625 C 33.109375 56.402344 32.335938 56.421875 31.550781 56.230469 C 31.175781 56.140625 31.085938 56.066406 31.054688 55.707031 C 31.027344 55.390625 31.042969 55.070312 31.03125 54.75 C 31.03125 54.710938 30.984375 54.644531 30.957031 54.644531 C 30.890625 54.640625 30.792969 54.640625 30.757812 54.683594 C 30.6875 54.777344 30.628906 54.890625 30.589844 55.003906 C 30.503906 55.257812 30.433594 55.519531 30.347656 55.777344 C 30.292969 55.933594 30.195312 56.015625 30.007812 55.949219 C 29.621094 55.816406 29.234375 55.859375 28.851562 55.984375 C 28.546875 56.085938 28.234375 56.144531 27.90625 56.144531 C 27.464844 56.148438 27.019531 56.175781 26.578125 56.191406 C 26.40625 56.199219 26.230469 56.210938 26.058594 56.207031 C 25.695312 56.203125 25.613281 56.066406 25.765625 55.757812 C 25.875 55.539062 25.988281 55.320312 26.085938 55.097656 C 26.136719 54.980469 26.039062 54.863281 25.902344 54.851562 C 25.667969 54.828125 25.457031 54.863281 25.3125 55.074219 C 25.136719 55.339844 24.949219 55.597656 24.785156 55.871094 C 24.582031 56.203125 24.589844 56.285156 24.839844 56.59375 C 24.914062 56.6875 25.003906 56.769531 25.148438 56.921875 C 24.835938 57.15625 24.574219 57.339844 24.332031 57.539062 Z M 31.535156 48.59375 C 31.835938 48.742188 32.054688 48.660156 32.265625 48.660156 C 32.957031 48.660156 33.648438 48.652344 34.335938 48.640625 C 34.644531 48.636719 34.722656 48.550781 34.746094 48.242188 C 34.753906 48.117188 34.75 47.996094 34.746094 47.875 C 34.726562 47.34375 34.644531 47.273438 34.128906 47.351562 C 34.007812 47.367188 33.886719 47.390625 33.773438 47.433594 C 33.011719 47.722656 32.273438 48.054688 31.535156 48.59375 Z M 26.503906 50.335938 C 26.503906 50.339844 26.503906 50.34375 26.503906 50.347656 C 26.726562 50.335938 26.949219 50.339844 27.167969 50.3125 C 27.667969 50.253906 28.113281 50.058594 28.492188 49.730469 C 28.527344 49.699219 28.570312 49.632812 28.558594 49.609375 C 28.53125 49.546875 28.476562 49.46875 28.421875 49.453125 C 27.945312 49.339844 27.464844 49.230469 26.984375 49.132812 C 26.316406 48.996094 25.71875 48.742188 25.289062 48.1875 C 25.257812 48.148438 25.222656 48.109375 25.179688 48.089844 C 25.140625 48.070312 25.085938 48.058594 25.046875 48.078125 C 25.011719 48.089844 24.976562 48.144531 24.976562 48.183594 C 24.96875 48.667969 24.910156 49.160156 25.070312 49.636719 C 25.234375 50.113281 25.480469 50.304688 25.988281 50.332031 C 26.160156 50.34375 26.332031 50.335938 26.503906 50.335938 Z M 41.683594 9.53125 C 41.484375 9.933594 41.277344 10.34375 41.210938 10.8125 C 41.183594 11.03125 41.136719 11.246094 41.070312 11.457031 C 41.027344 11.59375 40.957031 11.746094 40.773438 11.730469 C 40.601562 11.714844 40.53125 11.582031 40.464844 11.445312 C 40.34375 11.195312 40.335938 10.921875 40.339844 10.652344 C 40.355469 9.453125 40.289062 8.246094 40.445312 7.050781 C 40.476562 6.800781 40.414062 6.722656 40.183594 6.707031 C 39.296875 6.65625 38.410156 6.589844 37.523438 6.578125 C 35.941406 6.554688 34.367188 6.613281 32.796875 6.804688 C 31.964844 6.90625 31.128906 6.972656 30.292969 7.015625 C 29.800781 7.042969 29.308594 7 28.8125 6.996094 C 28.570312 6.992188 28.488281 7.0625 28.527344 7.300781 C 28.621094 7.84375 28.445312 8.316406 28.195312 8.777344 C 28.113281 8.929688 27.945312 8.9375 27.828125 8.816406 C 27.644531 8.632812 27.582031 8.394531 27.519531 8.160156 C 27.382812 7.613281 27.273438 7.058594 27.125 6.515625 C 26.90625 5.710938 26.667969 4.910156 26.433594 4.109375 C 26.382812 3.9375 26.253906 3.875 26.089844 3.929688 C 25.574219 4.089844 25.054688 4.25 24.546875 4.4375 C 23.066406 4.980469 21.597656 5.554688 20.109375 6.074219 C 18.339844 6.695312 16.636719 7.46875 14.9375 8.253906 C 14.378906 8.511719 13.832031 8.800781 13.300781 9.105469 C 12.777344 9.40625 12.769531 9.375 13.074219 9.863281 C 13.242188 10.132812 13.371094 10.425781 13.503906 10.71875 C 14.230469 12.328125 14.835938 13.988281 15.617188 15.574219 C 15.707031 15.75 15.792969 15.933594 15.765625 16.136719 C 15.757812 16.207031 15.726562 16.296875 15.679688 16.324219 C 15.628906 16.351562 15.535156 16.335938 15.472656 16.308594 C 15.285156 16.230469 15.15625 16.078125 15.03125 15.921875 C 14.757812 15.574219 14.519531 15.203125 14.320312 14.808594 C 14.246094 14.660156 14.214844 14.480469 14.019531 14.382812 C 13.882812 14.464844 13.734375 14.546875 13.589844 14.636719 C 11.433594 16.027344 9.351562 17.507812 7.402344 19.175781 C 7.308594 19.253906 7.21875 19.339844 7.113281 19.398438 C 6.800781 19.570312 6.773438 19.613281 6.898438 19.863281 C 6.945312 19.953125 6.992188 20.039062 7.046875 20.117188 C 7.960938 21.398438 8.875 22.679688 9.792969 23.957031 C 9.890625 24.09375 10.023438 24.207031 10.152344 24.324219 C 11.363281 25.449219 12.617188 26.515625 13.988281 27.445312 C 15.457031 28.4375 16.960938 29.378906 18.59375 30.085938 C 21.039062 31.144531 23.59375 31.75 26.265625 31.808594 C 27.277344 31.828125 28.289062 31.886719 29.296875 31.828125 C 30.871094 31.738281 32.441406 31.542969 33.992188 31.261719 C 34.808594 31.113281 35.667969 31.128906 36.410156 30.675781 C 36.425781 30.664062 36.453125 30.660156 36.480469 30.65625 C 36.617188 30.648438 36.742188 30.691406 36.761719 30.832031 C 36.796875 31.046875 36.804688 31.269531 36.808594 31.488281 C 36.816406 31.828125 36.8125 32.167969 36.8125 32.488281 C 36.992188 32.589844 37.132812 32.515625 37.269531 32.480469 C 39.050781 31.996094 40.832031 31.507812 42.617188 31.023438 C 42.820312 30.96875 42.96875 30.863281 43.089844 30.699219 C 43.324219 30.386719 43.578125 30.082031 43.800781 29.757812 C 44.203125 29.171875 44.550781 28.546875 44.988281 27.988281 C 45.902344 26.828125 46.75 25.621094 47.625 24.433594 C 48.484375 23.265625 49.285156 22.058594 50.042969 20.820312 C 51.203125 18.925781 52.097656 16.910156 52.820312 14.816406 C 52.96875 14.375 53.074219 13.917969 53.171875 13.464844 C 53.21875 13.253906 53.199219 13.027344 53.203125 12.804688 C 53.203125 12.699219 53.140625 12.617188 53.039062 12.585938 C 52.851562 12.527344 52.660156 12.480469 52.46875 12.4375 C 52.132812 12.367188 51.777344 12.339844 51.457031 12.222656 C 50.640625 11.917969 49.789062 11.808594 48.933594 11.699219 C 47.167969 11.476562 45.429688 11.132812 43.734375 10.582031 C 43.167969 10.398438 42.636719 10.152344 42.164062 9.785156 C 42.03125 9.683594 41.917969 9.542969 41.683594 9.53125 Z M 16.210938 29.972656 C 16.21875 29.890625 16.203125 29.824219 16.125 29.925781 C 16.101562 29.949219 16.171875 29.992188 16.222656 29.960938 C 16.183594 30.101562 16.277344 30.191406 16.351562 30.28125 C 17.988281 32.257812 19.375 34.402344 20.675781 36.605469 C 21.828125 38.554688 23.085938 40.429688 24.402344 42.269531 C 25.34375 43.589844 26.34375 44.867188 27.207031 46.246094 C 27.28125 46.367188 27.382812 46.484375 27.496094 46.570312 C 27.964844 46.929688 28.449219 47.269531 28.921875 47.621094 C 29.046875 47.714844 29.167969 47.761719 29.332031 47.738281 C 29.652344 47.6875 29.996094 47.671875 30.261719 47.859375 C 30.507812 48.035156 30.660156 47.941406 30.847656 47.800781 C 31.992188 46.9375 33.207031 46.195312 34.589844 45.761719 C 34.820312 45.6875 34.964844 45.546875 35.089844 45.359375 C 35.488281 44.765625 35.886719 44.175781 36.285156 43.585938 C 36.710938 42.953125 37.136719 42.324219 37.5625 41.691406 C 37.671875 41.527344 37.777344 41.351562 38 41.324219 C 38.222656 41.300781 38.339844 41.148438 38.449219 40.980469 C 38.761719 40.511719 39.097656 40.054688 39.394531 39.574219 C 40.980469 37 42.558594 34.425781 44.136719 31.847656 C 44.191406 31.757812 44.304688 31.65625 44.152344 31.507812 C 43.601562 31.660156 43.035156 31.824219 42.464844 31.976562 C 40.441406 32.507812 38.453125 33.171875 36.386719 33.554688 C 35.875 33.652344 35.363281 33.710938 34.84375 33.679688 C 33.921875 33.625 34.058594 33.492188 33.882812 34.511719 C 33.859375 34.65625 33.875 34.804688 33.875 34.953125 C 33.875 35.347656 33.882812 35.738281 33.871094 36.132812 C 33.863281 36.339844 33.9375 36.574219 33.761719 36.746094 C 33.671875 36.835938 33.507812 36.558594 33.433594 36.164062 C 33.417969 36.089844 33.40625 36.015625 33.40625 35.945312 C 33.40625 35.476562 33.378906 35.007812 33.414062 34.546875 C 33.445312 34.15625 33.539062 33.773438 33.75 33.425781 C 33.859375 33.25 34 33.125 34.207031 33.089844 C 34.402344 33.054688 34.597656 33.023438 34.792969 32.992188 C 35.109375 32.9375 35.425781 32.886719 35.738281 32.824219 C 35.894531 32.792969 36 32.695312 36.027344 32.527344 C 36.089844 32.140625 36.167969 31.753906 36.15625 31.359375 C 36.148438 31.210938 36.042969 31.128906 35.917969 31.195312 C 35.476562 31.421875 35.03125 31.617188 34.554688 31.761719 C 33.492188 32.082031 32.402344 32.28125 31.308594 32.46875 C 29.597656 32.765625 27.871094 32.792969 26.144531 32.71875 C 24.988281 32.667969 23.828125 32.59375 22.695312 32.339844 C 20.566406 31.863281 18.511719 31.191406 16.617188 30.097656 C 16.492188 30.023438 16.375 29.917969 16.210938 29.972656 Z M 44.753906 30.371094 C 45.132812 30.292969 45.441406 30.21875 45.753906 30.167969 C 45.953125 30.136719 46.074219 30.308594 45.992188 30.5 C 45.914062 30.679688 45.828125 30.859375 45.710938 31.011719 C 45.132812 31.78125 44.644531 32.605469 44.144531 33.425781 C 42.894531 35.480469 41.652344 37.542969 40.40625 39.605469 C 39.429688 41.230469 38.292969 42.742188 37.167969 44.269531 C 36.933594 44.585938 36.707031 44.90625 36.472656 45.21875 C 36.34375 45.386719 36.292969 45.550781 36.375 45.765625 C 36.605469 46.382812 36.539062 47.023438 36.453125 47.65625 C 36.390625 48.089844 36.285156 48.523438 36.214844 48.957031 C 36.171875 49.203125 36.089844 49.433594 35.976562 49.652344 C 35.746094 50.097656 35.28125 50.320312 34.765625 50.289062 C 33.785156 50.230469 32.800781 50.191406 31.824219 50.144531 C 31.753906 50.335938 31.902344 50.371094 31.992188 50.417969 C 32.785156 50.816406 33.542969 51.277344 34.277344 51.777344 C 34.601562 51.996094 34.625 52.066406 34.457031 52.4375 C 34.425781 52.503906 34.394531 52.574219 34.359375 52.636719 C 34.253906 52.804688 34.09375 52.871094 33.914062 52.777344 C 33.652344 52.644531 33.410156 52.476562 33.15625 52.328125 C 32.972656 52.222656 32.828125 52.03125 32.535156 52.066406 C 32.628906 52.355469 32.796875 52.558594 32.96875 52.757812 C 33.144531 52.960938 33.335938 53.15625 33.503906 53.367188 C 33.753906 53.675781 33.683594 54.148438 33.355469 54.398438 C 33.265625 54.46875 33.15625 54.457031 33.082031 54.398438 C 32.925781 54.28125 32.773438 54.152344 32.640625 54.007812 C 31.949219 53.246094 31.269531 52.464844 30.566406 51.710938 C 30.359375 51.488281 30.285156 51.132812 29.929688 51.050781 C 29.75 51.289062 29.71875 51.589844 29.597656 51.851562 C 29.378906 52.320312 29.167969 52.789062 28.9375 53.25 C 28.644531 53.84375 28.300781 54.414062 28.078125 55.042969 C 28.039062 55.15625 27.976562 55.265625 27.90625 55.367188 C 27.800781 55.53125 27.625 55.539062 27.46875 55.40625 C 27.226562 55.199219 27.09375 54.957031 27.175781 54.625 C 27.195312 54.535156 27.199219 54.433594 27.191406 54.339844 C 27.183594 54.25 26.960938 54.15625 26.894531 54.210938 C 26.800781 54.289062 26.722656 54.390625 26.625 54.460938 C 26.574219 54.496094 26.484375 54.519531 26.425781 54.503906 C 26.097656 54.394531 25.886719 53.964844 26.039062 53.667969 C 26.1875 53.386719 26.371094 53.121094 26.554688 52.859375 C 26.886719 52.378906 27.230469 51.90625 27.5625 51.445312 C 27.484375 51.253906 27.34375 51.316406 27.234375 51.316406 C 26.816406 51.320312 26.398438 51.359375 25.980469 51.335938 C 24.90625 51.285156 24.210938 50.640625 24.035156 49.578125 C 23.949219 49.039062 23.980469 48.5 23.996094 47.960938 C 24.011719 47.269531 24.113281 46.59375 24.351562 45.9375 C 24.519531 45.488281 24.894531 45.3125 25.335938 45.519531 C 25.535156 45.609375 25.714844 45.742188 25.902344 45.851562 C 26.066406 45.714844 25.9375 45.628906 25.875 45.546875 C 25.15625 44.613281 24.429688 43.683594 23.714844 42.742188 C 22.386719 41 21.207031 39.15625 20.082031 37.28125 C 18.871094 35.253906 17.632812 33.246094 16.242188 31.335938 C 15.675781 30.5625 15.089844 29.804688 14.515625 29.035156 C 14.304688 28.757812 14.054688 28.535156 13.765625 28.335938 C 12.257812 27.300781 10.863281 26.128906 9.570312 24.84375 C 8.578125 23.851562 7.6875 22.765625 6.792969 21.683594 C 6.640625 21.5 6.5 21.285156 6.402344 21.0625 C 6.15625 20.503906 5.914062 19.941406 5.613281 19.40625 C 5.398438 19.027344 5.453125 18.804688 5.796875 18.5 C 6.277344 18.082031 6.753906 17.640625 7.28125 17.292969 C 9.054688 16.136719 10.804688 14.945312 12.707031 13.996094 C 13.78125 13.460938 13.742188 13.691406 13.160156 12.648438 C 12.632812 11.707031 12.167969 10.734375 11.765625 9.734375 C 11.710938 9.597656 11.726562 9.488281 11.820312 9.398438 C 12 9.230469 12.183594 9.066406 12.378906 8.921875 C 13.199219 8.324219 14.089844 7.84375 15.003906 7.417969 C 16.613281 6.664062 18.253906 5.996094 19.917969 5.371094 C 21.390625 4.816406 22.855469 4.222656 24.355469 3.730469 C 24.84375 3.570312 25.347656 3.441406 25.847656 3.308594 C 26.011719 3.265625 26.167969 3.234375 26.320312 3.132812 C 26.660156 2.898438 27.0625 2.894531 27.460938 2.910156 C 27.734375 2.917969 27.929688 3.074219 28.007812 3.328125 C 28.097656 3.609375 28.15625 3.898438 28.199219 4.1875 C 28.269531 4.675781 28.3125 5.164062 28.367188 5.652344 C 28.414062 6.050781 28.453125 6.09375 28.878906 6.113281 C 29.570312 6.140625 30.257812 6.140625 30.949219 6.0625 C 32.027344 5.941406 33.101562 5.785156 34.183594 5.710938 C 36.355469 5.570312 38.523438 5.585938 40.65625 6.097656 C 40.898438 6.15625 41.136719 6.207031 41.390625 6.167969 C 41.507812 6.148438 41.636719 6.152344 41.757812 6.164062 C 42.269531 6.207031 42.417969 6.378906 42.335938 6.875 C 42.269531 7.285156 42.175781 7.695312 42.078125 8.097656 C 42.03125 8.292969 42.070312 8.425781 42.222656 8.550781 C 42.800781 9.015625 43.40625 9.433594 44.128906 9.65625 C 45.753906 10.148438 47.355469 10.722656 49.039062 11.023438 C 49.933594 11.183594 50.816406 11.425781 51.71875 11.558594 C 52.277344 11.640625 52.839844 11.714844 53.398438 11.8125 C 53.9375 11.90625 54.0625 12.046875 54.113281 12.578125 C 54.144531 12.921875 54.128906 13.265625 54.054688 13.605469 C 53.929688 14.203125 53.765625 14.792969 53.558594 15.375 C 53.027344 16.855469 52.398438 18.292969 51.691406 19.699219 C 51.492188 20.09375 51.285156 20.484375 51.054688 20.863281 C 50.171875 22.3125 49.253906 23.738281 48.214844 25.082031 C 47.628906 25.839844 47.058594 26.609375 46.484375 27.378906 C 46.382812 27.515625 46.285156 27.660156 46.21875 27.816406 C 45.871094 28.664062 45.40625 29.441406 44.832031 30.152344 C 44.804688 30.1875 44.800781 30.242188 44.753906 30.371094 " fill-opacity="1" fill-rule="nonzero"/></g></svg>