<svg xmlns="http://www.w3.org/2000/svg" xmlns:xlink="http://www.w3.org/1999/xlink" width="80" zoomAndPan="magnify" viewBox="0 0 60 60" height="80" preserveAspectRatio="xMidYMid meet" version="1.0"><defs><clipPath id="817b55d67d"><path d="M 0.300781 0 L 60 0 L 60 60 L 0.300781 60 Z M 0.300781 0 " clip-rule="nonzero"/></clipPath></defs><g clip-path="url(#817b55d67d)"><path fill="#efcebd" d="M 60.195312 29.964844 C 60.066406 36.132812 57.957031 40.707031 56.132812 44.671875 C 53.734375 49.878906 52.089844 53.441406 48.246094 56.191406 C 42.910156 60.007812 36.851562 59.734375 31.460938 59.488281 C 23 59.105469 16.976562 56.0625 14.8125 54.867188 C 11.792969 53.199219 8.074219 51.144531 5.015625 46.875 C 0.734375 40.90625 0.585938 34.570312 0.5 30.820312 C 0.304688 22.429688 3.222656 16.375 3.90625 15.015625 C 5.414062 12.011719 8.214844 6.4375 14.5 3.003906 C 19.992188 0.00390625 25.210938 0.246094 29.15625 0.429688 C 34.066406 0.660156 45.609375 1.199219 53.542969 10.480469 C 60.300781 18.382812 60.246094 27.707031 60.195312 29.964844 Z M 60.195312 29.964844 " fill-opacity="1" fill-rule="nonzero"/></g><path fill="#605958" d="M 38.417969 29.46875 C 38.40625 27.695312 38.445312 25.914062 38.359375 24.144531 C 38.289062 22.632812 38.035156 21.066406 37.21875 19.753906 C 35.460938 16.921875 32.007812 16.929688 29.027344 16.679688 C 25.570312 16.386719 22.011719 15.980469 18.546875 16.277344 C 16.757812 16.425781 14.863281 16.730469 13.300781 17.664062 C 11.949219 18.476562 10.539062 19.9375 9.902344 21.382812 C 9.566406 22.148438 9.539062 22.960938 9.539062 23.785156 C 9.539062 24.765625 9.542969 25.746094 9.546875 26.726562 C 9.546875 28.453125 9.550781 30.175781 9.554688 31.898438 C 9.453125 33.601562 9.59375 35.3125 9.976562 36.980469 C 10.3125 38.453125 10.796875 39.902344 12.019531 40.878906 C 14.378906 42.765625 17.691406 43.414062 20.632812 43.65625 C 22.414062 43.800781 24.203125 43.78125 25.992188 43.761719 C 27.742188 43.742188 29.492188 43.789062 31.242188 43.777344 C 33.851562 43.757812 38.0625 43.605469 38.445312 40.277344 C 38.644531 38.558594 38.472656 36.738281 38.460938 35.007812 C 38.445312 33.160156 38.429688 31.3125 38.417969 29.46875 Z M 36.355469 40.722656 C 35.71875 41.691406 33.714844 41.757812 32.695312 41.824219 C 31.230469 41.921875 29.765625 41.847656 28.300781 41.84375 C 26.808594 41.835938 25.320312 41.878906 23.828125 41.871094 C 20.667969 41.859375 17.351562 41.640625 14.488281 40.183594 C 13.859375 39.863281 13.191406 39.507812 12.75 38.945312 C 12.292969 38.363281 12.101562 37.605469 11.921875 36.90625 C 11.605469 35.679688 11.453125 34.433594 11.4375 33.179688 C 11.453125 33.101562 11.464844 33.019531 11.464844 32.925781 C 11.464844 32.59375 11.464844 32.257812 11.460938 31.925781 C 11.464844 31.90625 11.464844 31.886719 11.464844 31.867188 C 11.46875 31.8125 11.46875 31.761719 11.460938 31.710938 C 11.453125 29.019531 11.441406 26.324219 11.453125 23.628906 C 11.457031 23.003906 11.464844 22.453125 11.777344 21.894531 C 12.109375 21.292969 12.628906 20.753906 13.101562 20.265625 C 14.105469 19.230469 15.320312 18.726562 16.714844 18.441406 C 19.652344 17.835938 22.738281 18.128906 25.707031 18.332031 C 27.289062 18.441406 28.867188 18.566406 30.445312 18.710938 C 31.710938 18.824219 33.113281 18.863281 34.257812 19.476562 C 36.828125 20.855469 36.46875 24.492188 36.484375 26.933594 C 36.507812 30.101562 36.527344 33.265625 36.550781 36.433594 C 36.554688 37.171875 36.558594 37.910156 36.566406 38.648438 C 36.570312 39.273438 36.714844 40.167969 36.355469 40.722656 Z M 51.042969 27.773438 C 50.949219 25.957031 50.773438 24.148438 50.496094 22.351562 C 50.304688 21.121094 50.101562 18.636719 48.191406 19.308594 C 48.140625 19.328125 48.089844 19.351562 48.042969 19.375 C 48.019531 19.382812 47.992188 19.394531 47.964844 19.40625 C 45.132812 20.632812 43.015625 23.230469 39.984375 24.019531 C 39.578125 24.128906 39.28125 24.527344 39.28125 24.941406 C 39.277344 26.636719 39.273438 28.332031 39.269531 30.027344 C 39.265625 31.507812 39.0625 33.179688 39.566406 34.601562 C 40.035156 35.910156 41.070312 36.789062 42.148438 37.605469 C 43.378906 38.535156 44.597656 39.527344 45.890625 40.371094 C 47.007812 41.097656 48.46875 41.71875 49.808594 41.28125 C 51.1875 40.832031 51.046875 38.902344 51.085938 37.746094 C 51.203125 34.429688 51.21875 31.085938 51.042969 27.773438 Z M 49.207031 36.050781 C 49.199219 36.667969 49.195312 37.285156 49.167969 37.902344 C 49.15625 38.210938 49.140625 38.519531 49.113281 38.828125 C 49.097656 38.992188 49.082031 39.152344 49.058594 39.316406 C 49.054688 39.378906 49.042969 39.441406 49.027344 39.507812 C 48.992188 39.507812 48.957031 39.511719 48.917969 39.507812 C 48.792969 39.496094 48.664062 39.507812 48.539062 39.488281 C 48.28125 39.449219 48.023438 39.355469 47.785156 39.253906 C 47.257812 39.023438 46.769531 38.679688 46.304688 38.339844 C 45.296875 37.613281 44.304688 36.855469 43.308594 36.105469 C 42.460938 35.46875 41.554688 34.773438 41.289062 33.699219 C 40.972656 32.402344 41.179688 30.886719 41.183594 29.5625 C 41.183594 28.253906 41.1875 26.945312 41.191406 25.640625 C 43.855469 24.695312 45.863281 22.566406 48.375 21.308594 C 48.378906 21.328125 48.382812 21.34375 48.382812 21.351562 C 48.445312 21.648438 48.496094 21.953125 48.550781 22.253906 C 48.671875 22.972656 48.773438 23.695312 48.859375 24.421875 C 49 25.6875 49.09375 26.957031 49.152344 28.230469 C 49.273438 30.835938 49.246094 33.445312 49.207031 36.050781 Z M 49.207031 36.050781 " fill-opacity="1" fill-rule="nonzero"/><path stroke-linecap="butt" transform="matrix(0.75, 0, 0, 0.75, 20.549999, 45.75)" fill="none" stroke-linejoin="miter" d="M 0.00104281 2 L 25.600002 2 " stroke="#efcebd" stroke-width="4" stroke-opacity="1" stroke-miterlimit="4"/></svg>